<svg xmlns="http://www.w3.org/2000/svg" width="122" height="122" viewBox="0 0 122 122"><g transform="translate(-5497 -733)"><rect width="122" height="122" transform="translate(5497 733)" fill="none"/><path d="M27,2.667c-14.534,0-25.92,18.5-27,34.109C4.563,44.7,15.559,47.666,27,47.666S49.444,44.7,54,36.776C52.92,21.157,41.534,2.667,27,2.667Zm.338,41.4c-21.465,0-23.525-9.077-23.525-9.077l.4-2.2s5.908-12.758,9.62-12.758S19.1,25.3,22.14,25.3s9.617-11.678,11.98-11.678,6.345,4.387,9.607,8.437,6.475,11,6.475,11l-.019.076.338,1.993S48.8,44.065,27.336,44.065Z" transform="translate(5531 769.333)" fill="#fff"/></g></svg>