<svg xmlns="http://www.w3.org/2000/svg" width="122" height="122" viewBox="0 0 122 122"><g transform="translate(-6049 -561)"><rect width="122" height="122" transform="translate(6049 561)" fill="none"/><path d="M1.8,1.615A1.775,1.775,0,0,0,0,3.367a1.855,1.855,0,0,0,.023.31L7.562,49.45a2.421,2.421,0,0,0,2.362,2.015H46.093a1.785,1.785,0,0,0,1.78-1.492L55.428,3.694A1.775,1.775,0,0,0,53.96,1.658a1.423,1.423,0,0,0-.307-.023ZM33.547,34.693H22L18.876,18.371H36.344Z" transform="translate(6082 595.385)" fill="#fff"/></g></svg>