<svg xmlns="http://www.w3.org/2000/svg" width="122" height="122" viewBox="0 0 122 122"><g transform="translate(-5221 -561)"><rect width="122" height="122" transform="translate(5221 561)" fill="none"/><path d="M2.678,7.364A2.612,2.612,0,0,0,0,9.875V30.95A12.818,12.818,0,0,0,12.813,43.5h.067A13.166,13.166,0,0,0,24.39,36.7l.034-.067A13.107,13.107,0,0,0,35.8,43.5a12.922,12.922,0,0,0,13.049-12.88c.168-6.86-5.687-12.549-12.88-12.549A12.953,12.953,0,0,0,24.593,24.76a13.032,13.032,0,0,0-11.544-6.692,13.756,13.756,0,0,0-7.865,2.511V9.875a2.57,2.57,0,0,0-2.5-2.511h0ZM49.143,17.8a2.684,2.684,0,0,0-.446-.038,2.649,2.649,0,0,0-1.529.484l.008-.006a2.81,2.81,0,0,0-.5,3.679l6.692,8.7-6.69,8.7a2.448,2.448,0,0,0,.5,3.518,2.614,2.614,0,0,0,3.675-.341l5.693-7.36,5.853,7.53a2.789,2.789,0,0,0,3.679.335,2.578,2.578,0,0,0,.337-3.516l-6.527-8.7,6.527-8.535A2.563,2.563,0,1,0,62.4,19.071l-5.853,7.193-5.7-7.524a2.8,2.8,0,0,0-1.709-.944ZM12.88,23.085a7.826,7.826,0,0,1,7.865,7.7,7.715,7.715,0,0,1-7.865,7.7,7.712,7.712,0,0,1-7.863-7.7,7.823,7.823,0,0,1,7.863-7.7Zm23.088,0a7.824,7.824,0,0,1,7.863,7.7,7.927,7.927,0,0,1-7.863,7.7,7.714,7.714,0,0,1-7.865-7.7,7.826,7.826,0,0,1,7.865-7.7Z" transform="translate(5248.498 596.553)" fill="#fff"/></g></svg>