<svg xmlns="http://www.w3.org/2000/svg" width="122" height="122" viewBox="0 0 122 122">
  <g id="Group_93" data-name="Group 93" transform="translate(-5715 -733)">
    <g id="Group_92" data-name="Group 92" transform="translate(5748 762)">
      <path id="Path_82" data-name="Path 82" d="M53.533,7.317h-13.2a9.437,9.437,0,0,0-17.813,0H9.317A6.335,6.335,0,0,0,3,13.633V57.85a6.335,6.335,0,0,0,6.317,6.317H53.533A6.335,6.335,0,0,0,59.85,57.85V13.633A6.335,6.335,0,0,0,53.533,7.317Zm-22.108,0a3.158,3.158,0,1,1-3.158,3.158A3.168,3.168,0,0,1,31.425,7.317Zm6.317,44.217H15.633V45.217H37.742ZM47.217,38.9H15.633V32.583H47.217Zm0-12.633H15.633V19.95H47.217Z" transform="translate(-3 -1)" fill="#fff"/>
    </g>
    <rect id="Rectangle_137" data-name="Rectangle 137" width="122" height="122" transform="translate(5715 733)" fill="none"/>
  </g>
</svg>
