<svg xmlns="http://www.w3.org/2000/svg" width="122" height="122" viewBox="0 0 122 122"><g transform="translate(-5083 -1183)"><rect width="122" height="122" transform="translate(5083 1183)" fill="none"/><path d="M34.2,3.176c-.181,0-.394-.006-.608-.006A26.227,26.227,0,0,0,8.337,22.332l-.044.185c.149-.057-.154.036,0,0-10.873,7.157-11,22.754-.692,30.7l.017-.019L7.6,53.28a18.708,18.708,0,0,0,11.355,3.8h14.6l.084.084H48.2c18.762.149,26.306-24.143,10.759-34.652A26.37,26.37,0,0,0,51.074,9.769l-.025-.023-.12.12.017-.141A26.082,26.082,0,0,0,34.235,3.176H34.2Zm-1,11.633a15,15,0,0,1,9.781,3.226,14.532,14.532,0,0,1,5.227,11.172c0,.095,0,.189,0,.286v1.439c9.905-.2,9.905,14.764,0,14.57H33.634l-.023.025v-.112H19.038A7.219,7.219,0,0,1,16,44.752l.044.019h0a7.287,7.287,0,1,1,9.625-9.688l.019.044,8.453-8.451a18.965,18.965,0,0,0-11.267-7.037l-.122-.021c.051-.027.112-.074.152-.065a14.51,14.51,0,0,1,10.267-4.743H33.2Z" transform="translate(5110 1213.83)" fill="#fff"/></g></svg>