<svg xmlns="http://www.w3.org/2000/svg" width="122" height="122" viewBox="0 0 122 122"><g transform="translate(-5221 -1011)"><rect width="122" height="122" transform="translate(5221 1011)" fill="none"/><path d="M31.214.4a31.216,31.216,0,0,0-9.872,60.829c1.561.295,2.132-.671,2.132-1.5,0-.741-.025-2.706-.039-5.306-8.683,1.883-10.513-4.189-10.513-4.189-1.42-3.6-3.473-4.565-3.473-4.565-2.827-1.935.219-1.9.219-1.9,3.135.219,4.782,3.215,4.782,3.215,2.784,4.774,7.306,3.395,9.091,2.6a6.656,6.656,0,0,1,1.976-4.175C18.586,44.626,11.3,41.941,11.3,29.98a12.037,12.037,0,0,1,3.213-8.375,11.1,11.1,0,0,1,.273-8.262s2.614-.837,8.584,3.2a29.429,29.429,0,0,1,15.607,0c5.931-4.036,8.545-3.2,8.545-3.2a11.407,11.407,0,0,1,.312,8.262,12.092,12.092,0,0,1,3.2,8.375c0,11.992-7.3,14.632-14.242,15.4,1.093.936,2.107,2.85,2.107,5.775,0,4.177-.039,7.532-.039,8.547,0,.819.546,1.795,2.146,1.483A31.177,31.177,0,0,0,31.214.4Z" transform="translate(5251 1041.605)" fill="#fff"/></g></svg>