<svg xmlns="http://www.w3.org/2000/svg" width="122" height="122" viewBox="0 0 122 122"><g transform="translate(-5911 -1011)"><rect width="122" height="122" transform="translate(5911 1011)" fill="none"/><path d="M27.319,23.141V32.4H42.633C42.01,36.376,38,44.044,27.319,44.044a17.047,17.047,0,0,1,0-34.087,15.18,15.18,0,0,1,10.758,4.166l7.33-7.055A25.838,25.838,0,0,0,27.319,0a27,27,0,0,0,0,54C42.9,54,53.244,43.041,53.244,27.623a24.869,24.869,0,0,0-.422-4.472Z" transform="translate(5945.681 1045)" fill="#fff"/></g></svg>