<svg xmlns="http://www.w3.org/2000/svg" width="122" height="122" viewBox="0 0 122 122"><g transform="translate(-5911 -733)"><rect width="122" height="122" transform="translate(5911 733)" fill="none"/><g transform="translate(5943 769)"><path d="M54.357,5.624s.005,0,.007.007V49.11s0,.005-.007.007H3.63s-.005,0-.007-.007V5.632s0-.005.007-.007H54.357ZM54.364,2H3.624A3.635,3.635,0,0,0,0,5.624V49.116A3.635,3.635,0,0,0,3.624,52.74h50.74a3.635,3.635,0,0,0,3.624-3.624V5.624A3.635,3.635,0,0,0,54.364,2Z" transform="translate(0 -2)" fill="#fff"/><path d="M30.873,11.436A5.436,5.436,0,1,1,25.436,6,5.436,5.436,0,0,1,30.873,11.436Z" transform="translate(16.243 1.249)" fill="#fff"/><path d="M47.491,38.994H4V31.746L16.685,10l14.5,18.121h3.624L47.491,17.249Z" transform="translate(3.249 4.497)" fill="#fff"/></g></g></svg>