<svg xmlns="http://www.w3.org/2000/svg" width="122" height="122" viewBox="0 0 122 122"><g transform="translate(-5083 -733)"><rect width="122" height="122" transform="translate(5083 733)" fill="none"/><path d="M50.1,6.658C44.607,2.5,36.16.014,27.5.014c-10.712,0-19.439,3.74-23.947,10.26A20.3,20.3,0,0,0,.074,21.052a34.576,34.576,0,0,0,1.818,12C6.594,18.959,19.725,7.92,34.864,7.92c0,0-14.166,3.729-23.073,15.275,0,.006-.124.154-.328.431A33.392,33.392,0,0,0,6.95,31.819,48.8,48.8,0,0,0,3.143,50.742H9.487A37.023,37.023,0,0,1,10.2,37.717a56.17,56.17,0,0,0,7.476.56c5.832,0,9.981-1.262,13.054-3.971,2.753-2.428,4.273-5.689,5.879-9.142C39.064,19.891,41.846,13.914,49.923,9.3a1.587,1.587,0,0,0,.171-2.642Z" transform="translate(5118.954 768.986)" fill="#fff"/></g></svg>