<svg xmlns="http://www.w3.org/2000/svg" width="122" height="122" viewBox="0 0 122 122"><g transform="translate(-6049 -733)"><rect width="122" height="122" transform="translate(6049 733)" fill="none"/><g transform="translate(6081.622 765.624)"><path d="M16.479,35.573a2.926,2.926,0,0,1-2.075-.86,13.783,13.783,0,0,1,0-19.471L25.239,4.408A13.769,13.769,0,0,1,44.712,23.879l-4.953,4.953a2.934,2.934,0,0,1-4.15-4.15l4.953-4.953A7.9,7.9,0,0,0,29.389,8.558L18.554,19.392a7.908,7.908,0,0,0,0,11.172,2.934,2.934,0,0,1-2.075,5.009Z" transform="translate(8.057 0)" fill="#fff"/><path d="M14.141,47.331A13.768,13.768,0,0,1,4.4,23.827l4.953-4.953a2.934,2.934,0,1,1,4.15,4.15L8.554,27.977A7.9,7.9,0,0,0,19.728,39.149L30.562,28.314a7.908,7.908,0,0,0,0-11.172,2.934,2.934,0,0,1,4.15-4.15,13.783,13.783,0,0,1,0,19.471L23.878,43.3a13.679,13.679,0,0,1-9.737,4.032Z" transform="translate(0 9.473)" fill="#fff"/></g></g></svg>