<svg xmlns="http://www.w3.org/2000/svg" width="122" height="122" viewBox="0 0 122 122"><g transform="translate(-5359 -1011)"><rect width="122" height="122" transform="translate(5359 1011)" fill="none"/><path d="M44.05,22.109a2.731,2.731,0,0,1,.786.6l0,0,6.11-2.718-5.7-5.648-1.278,7.685ZM31.372,16.976a3.355,3.355,0,0,1,.542,1.477l0,.016,9.1,3.855a2.684,2.684,0,0,1,.9-.457l.02,0,1.492-9.234L37.888,6.818l-6.516,10.02ZM62.412,31.259,52.664,21.51l-6.627,2.716L62.33,31.149s.139.109.084.109Zm-1.631,1.576-15.64-6.682a2.712,2.712,0,0,1-1.807,1.057l-.014,0L41.637,37.506a2.711,2.711,0,0,1,.788,1.9h0l9.45,1.982,8.662-8.609v-.162ZM40.059,24.009l-8.5-3.615a3.123,3.123,0,0,1-2.612,1.414c-.035,0-.072,0-.107,0h-.511L21.3,32.671l18.793-8.147v.025c-.006-.064-.01-.14-.01-.217a2.17,2.17,0,0,1,.012-.226v.01a.1.1,0,0,0,0-.023.129.129,0,0,0-.029-.084h0Zm10.32,19.01-8.311-1.711a2.861,2.861,0,0,1-1.178.888l-.02.006L38.89,54.478,50.432,43.044s-.025.053-.055.053Zm-11.625-.843a2.729,2.729,0,0,1-1.6-1.828l0-.02L21.676,37.15l-.219.353L35.5,57.818l.841-.843,2.39-14.749s.08.057.025.029ZM22,35.278l15.289,3.151a2.726,2.726,0,0,1,2.134-1.358h.01l1.656-10.129-.351-.3L21.728,34.79a4.207,4.207,0,0,1,.258.46l.012.027Zm-6.409,2.552-.326-.326-6.6,2.716L11.87,43.4l3.638-5.65Zm4.343,1.034a3.5,3.5,0,0,1-1.463.326h-.016a3.648,3.648,0,0,1-1.182-.2L17.3,39l-4.017,5.839,17.6,17.433,3.1-3.069Zm-2.47-6.871c.123-.012.265-.02.408-.02s.287.006.427.02l-.018,0a3.545,3.545,0,0,1,.447-.027,3.717,3.717,0,0,1,.466.029l-.018,0,7.115-11.056a3.082,3.082,0,0,1-.868-2.142h0a3.174,3.174,0,0,1,0-.72l0,.016-8.637-3.994L9.835,20.858Zm.788-19.253,8.42,3.584a3.209,3.209,0,0,1,2.052-.735c.043,0,.084,0,.125,0h-.006a3.5,3.5,0,0,1,1.057.172l-.025-.008L36.446,5.485,31.014.054,18.25,12.573s-.025.135,0,.164ZM15.1,33.974a4.063,4.063,0,0,1,.626-.87l0,0-7.2-10.753L0,30.634ZM14.422,35.8,1.388,33.075l5.73,5.814,7.224-3.069Z" transform="translate(5388.883 1040.837)" fill="#fff"/></g></svg>