<svg xmlns="http://www.w3.org/2000/svg" width="122" height="122" viewBox="0 0 122 122"><g transform="translate(-5359 -561)"><rect width="122" height="122" transform="translate(5359 561)" fill="none"/><path d="M58.192,16.967V42.373a1.869,1.869,0,0,1-.576,1.4,1.941,1.941,0,0,1-1.406.558H35.486V27.455l3.879,2.981a1.389,1.389,0,0,0,.918.306,1.51,1.51,0,0,0,.944-.307Zm-22.707-4.9H56.208a1.954,1.954,0,0,1,1.317.466,1.719,1.719,0,0,1,.6,1.237L40.26,28.018l-4.774-3.755ZM32.5,1.152v54L0,49.537V6.924l32.505-5.77ZM22.682,28.26a11.272,11.272,0,0,0-2.131-6.823,6.574,6.574,0,0,0-5.166-2.822,6.608,6.608,0,0,0-5.092,2.822A11.128,11.128,0,0,0,8.183,28.26a11.064,11.064,0,0,0,2.146,6.767,6.712,6.712,0,0,0,5.094,2.851,6.687,6.687,0,0,0,5.2-2.837,11.127,11.127,0,0,0,2.146-6.781Zm-7.565-6.019a3.244,3.244,0,0,1,2.626,1.738A7.956,7.956,0,0,1,18.8,28.227a8.041,8.041,0,0,1-1.055,4.293,3.153,3.153,0,0,1-2.657,1.708,3.107,3.107,0,0,1-2.655-1.673A7.692,7.692,0,0,1,11.376,28.3a7.486,7.486,0,0,1,1.055-4.219,3.34,3.34,0,0,1,2.62-1.748Z" transform="translate(5391 593.848)" fill="#fff"/></g></svg>