<svg xmlns="http://www.w3.org/2000/svg" width="122" height="122" viewBox="0 0 122 122"><g transform="translate(-5773 -561)"><rect width="122" height="122" transform="translate(5773 561)" fill="none"/><path d="M11.345,34.12A5.688,5.688,0,0,1,5.677,39.8h0A5.689,5.689,0,0,1,0,34.12H0a5.686,5.686,0,0,1,5.673-5.67h5.67Zm2.859,0a5.686,5.686,0,0,1,5.672-5.67h0a5.686,5.686,0,0,1,5.672,5.67v14.2A5.69,5.69,0,0,1,19.875,54h0A5.686,5.686,0,0,1,14.2,48.327h0Zm5.673-22.775A5.686,5.686,0,0,1,14.2,5.677v0A5.69,5.69,0,0,1,19.876,0h0A5.686,5.686,0,0,1,25.55,5.673v5.67Zm0,2.859a5.687,5.687,0,0,1,5.672,5.672v0a5.687,5.687,0,0,1-5.672,5.672H5.675A5.69,5.69,0,0,1,0,19.876v0A5.686,5.686,0,0,1,5.673,14.2h14.2ZM42.65,19.876A5.686,5.686,0,0,1,48.323,14.2h0A5.69,5.69,0,0,1,54,19.876v0a5.686,5.686,0,0,1-5.673,5.672H42.65Zm-2.853,0a5.687,5.687,0,0,1-5.677,5.672h0a5.686,5.686,0,0,1-5.67-5.672V5.675A5.688,5.688,0,0,1,34.12,0h0A5.689,5.689,0,0,1,39.8,5.673h0ZM34.12,42.65A5.689,5.689,0,0,1,39.8,48.323h0A5.689,5.689,0,0,1,34.12,54h0a5.686,5.686,0,0,1-5.67-5.673V42.65Zm0-2.853a5.686,5.686,0,0,1-5.67-5.677h0a5.684,5.684,0,0,1,5.67-5.67h14.2A5.688,5.688,0,0,1,54,34.12h0A5.689,5.689,0,0,1,48.327,39.8H34.12Z" transform="translate(5807 595)" fill="#fff"/></g></svg>