<svg xmlns="http://www.w3.org/2000/svg" width="122" height="122" viewBox="0 0 122 122"><g transform="translate(-5635 -1011)"><rect width="122" height="122" transform="translate(5635 1011)" fill="none"/><path d="M28.3,20.587c-4.887-1.814-7.552-3.208-7.552-5.42,0-1.87,1.537-2.936,4.278-2.936,5.01,0,10.159,1.931,13.7,3.67l2-12.361A38.439,38.439,0,0,0,24.224,0C18.6,0,13.929,1.472,10.587,4.213c-3.475,2.869-5.28,7.02-5.28,12.028,0,9.087,5.55,12.96,14.572,16.242C25.7,34.554,27.63,36.026,27.63,38.3c0,2.206-1.89,3.476-5.3,3.476-4.219,0-11.171-2.072-15.727-4.745L4.58,49.526A41.138,41.138,0,0,0,23.21,54c5.942,0,10.9-1.4,14.237-4.079,3.745-2.936,5.682-7.282,5.682-12.9,0-9.288-5.678-13.164-14.836-16.436Z" transform="translate(5672.42 1044.999)" fill="#fff"/></g></svg>