<svg xmlns="http://www.w3.org/2000/svg" width="122" height="122" viewBox="0 0 122 122"><g transform="translate(-5635 -561)"><rect width="122" height="122" transform="translate(5635 561)" fill="none"/><path d="M48.938,0H5.063A5.077,5.077,0,0,0,0,5.063V48.938A5.077,5.077,0,0,0,5.063,54H48.938A5.077,5.077,0,0,0,54,48.938V5.063A5.077,5.077,0,0,0,48.938,0ZM23.625,40.5a3.385,3.385,0,0,1-3.375,3.375H13.5A3.385,3.385,0,0,1,10.125,40.5v-27A3.385,3.385,0,0,1,13.5,10.125h6.75A3.385,3.385,0,0,1,23.625,13.5Zm20.25-10.125A3.385,3.385,0,0,1,40.5,33.75H33.75a3.385,3.385,0,0,1-3.375-3.375V13.5a3.385,3.385,0,0,1,3.375-3.375H40.5A3.385,3.385,0,0,1,43.875,13.5Z" transform="translate(5669 595)" fill="#fff"/></g></svg>