<svg xmlns="http://www.w3.org/2000/svg" width="122" height="122" viewBox="0 0 122 122"><g transform="translate(-5083 -561)"><rect width="122" height="122" transform="translate(5083 561)" fill="none"/><g transform="translate(5023.564 189.679)"><g transform="translate(92.436 405.321)"><path d="M147.951,452.323c-4.87,2.515-8.53,1.988-8.919-1.048a55.422,55.422,0,0,1-.036-9.994c.059-.667.261-2.822.39-3.473,1.663-.347,3.886-1.16,3.886,1.732a5.4,5.4,0,0,0,2.646-3.035c1.467-6.938-5.8-5.118-5.8-5.118,1.773-8.2,3.68-16.924,7.74-24.126l-4.047-1.939c-2.739,2.1-5.5,4.22-7.8,4.563-2.1.507-14.947,1.515-14.044-4.365-1.435.115-2.241,1.8-2.233,3.26.464,6.346,8.711,5.088,13.733,5.709a174.418,174.418,0,0,0-13.853,20.165c-3.262.624-3.692-3.422-3.136-4.536a4.83,4.83,0,0,0-2.986,2.96c-1.008,2.476.133,6.665,3.643,6.9-3.475,6.114-7.642,16.131-16.169,14.129-2.853-.588-6.185-5.42-4.46-8.292,1.058-1.471-.511-2.5-2.31-.322-4.425,4.882-.157,14.634,9.114,14.048,9.966.216,16.691-12.171,20.321-19.53l9.45-1.486-.6,7.711c-1.191,19.177,12.611,11.775,12.611,11.775,1.919-.871,3.928-2.971,3.879-5.417C148.865,451.77,148.409,452.089,147.951,452.323Zm-14.067-19.541-7.153.872c3.564-5.7,5.514-10.974,11.26-16.756C136.406,421.949,135.116,427.679,133.884,432.782Z" transform="translate(-92.436 -405.321)" fill="#fff"/></g></g></g></svg>