<svg xmlns="http://www.w3.org/2000/svg" width="122" height="122" viewBox="0 0 122 122"><g transform="translate(-5083 -1011)"><rect width="122" height="122" transform="translate(5083 1011)" fill="none"/><path d="M31.214,0A31.214,31.214,0,1,0,62.429,31.214,31.213,31.213,0,0,0,31.214,0Zm0,58.527a27.232,27.232,0,0,1-10.8-2.222L34.625,40.314a1.947,1.947,0,0,0,.494-1.3V33.165a1.952,1.952,0,0,0-1.951-1.951c-6.889,0-14.156-7.162-14.228-7.232a1.949,1.949,0,0,0-1.379-.572h-7.8a1.952,1.952,0,0,0-1.951,1.951V37.067a1.948,1.948,0,0,0,1.079,1.744l6.725,3.363V53.628A27.328,27.328,0,0,1,6.534,19.509h7.125a1.946,1.946,0,0,0,1.379-.572l7.8-7.8a1.949,1.949,0,0,0,.572-1.379V5.035a27.393,27.393,0,0,1,19.77,1.621c-.254.213-.5.437-.734.673a11.707,11.707,0,0,0,8.27,19.985c.193,0,.386,0,.579-.014.843,3.159,2.363,11.38-.513,22.7a1.827,1.827,0,0,0-.051.318,27.227,27.227,0,0,1-19.517,8.209Z" transform="translate(5113 1041)" fill="#fff"/></g></svg>